<svg xmlns="http://www.w3.org/2000/svg" version="1.1" xmlns:xlink="http://www.w3.org/1999/xlink" xmlns:svgjs="http://svgjs.dev/svgjs" viewBox="0 0 1422 800"><g stroke-width="3.5" stroke="hsl(272, 38%, 74%)" fill="none" stroke-linecap="square"><line x1="0" y1="0" x2="80" y2="80" opacity="0.84"></line><line x1="160" y1="0" x2="80" y2="80" opacity="0.15"></line><line x1="240" y1="0" x2="160" y2="80" opacity="0.90"></line><line x1="320" y1="0" x2="240" y2="80" opacity="0.31"></line><line x1="320" y1="0" x2="400" y2="80" opacity="0.61"></line><line x1="400" y1="0" x2="480" y2="80" opacity="0.20"></line><line x1="480" y1="0" x2="560" y2="80" opacity="0.60"></line><line x1="640" y1="0" x2="560" y2="80" opacity="0.89"></line><line x1="720" y1="0" x2="640" y2="80" opacity="0.77"></line><line x1="720" y1="0" x2="800" y2="80" opacity="0.62"></line><line x1="800" y1="0" x2="880" y2="80" opacity="0.96"></line><line x1="880" y1="0" x2="960" y2="80" opacity="0.59"></line><line x1="1040" y1="0" x2="960" y2="80" opacity="0.87"></line><line x1="1040" y1="0" x2="1120" y2="80" opacity="0.42"></line><line x1="1200" y1="0" x2="1120" y2="80" opacity="0.83"></line><line x1="1200" y1="0" x2="1280" y2="80" opacity="0.78"></line><line x1="1360" y1="0" x2="1280" y2="80" opacity="0.23"></line><line x1="1360" y1="0" x2="1440" y2="80" opacity="0.80"></line><line x1="0" y1="80" x2="80" y2="160" opacity="0.12"></line><line x1="80" y1="80" x2="160" y2="160" opacity="0.32"></line><line x1="240" y1="80" x2="160" y2="160" opacity="0.07"></line><line x1="240" y1="80" x2="320" y2="160" opacity="0.53"></line><line x1="400" y1="80" x2="320" y2="160" opacity="0.48"></line><line x1="400" y1="80" x2="480" y2="160" opacity="0.23"></line><line x1="560" y1="80" x2="480" y2="160" opacity="0.56"></line><line x1="640" y1="80" x2="560" y2="160" opacity="0.51"></line><line x1="720" y1="80" x2="640" y2="160" opacity="0.61"></line><line x1="800" y1="80" x2="720" y2="160" opacity="0.30"></line><line x1="800" y1="80" x2="880" y2="160" opacity="0.16"></line><line x1="880" y1="80" x2="960" y2="160" opacity="0.32"></line><line x1="1040" y1="80" x2="960" y2="160" opacity="0.60"></line><line x1="1040" y1="80" x2="1120" y2="160" opacity="0.86"></line><line x1="1120" y1="80" x2="1200" y2="160" opacity="0.15"></line><line x1="1280" y1="80" x2="1200" y2="160" opacity="0.43"></line><line x1="1360" y1="80" x2="1280" y2="160" opacity="0.79"></line><line x1="1440" y1="80" x2="1360" y2="160" opacity="0.10"></line><line x1="0" y1="160" x2="80" y2="240" opacity="0.25"></line><line x1="160" y1="160" x2="80" y2="240" opacity="0.64"></line><line x1="160" y1="160" x2="240" y2="240" opacity="0.35"></line><line x1="240" y1="160" x2="320" y2="240" opacity="0.80"></line><line x1="400" y1="160" x2="320" y2="240" opacity="0.25"></line><line x1="400" y1="160" x2="480" y2="240" opacity="0.10"></line><line x1="560" y1="160" x2="480" y2="240" opacity="0.17"></line><line x1="560" y1="160" x2="640" y2="240" opacity="0.10"></line><line x1="720" y1="160" x2="640" y2="240" opacity="0.76"></line><line x1="800" y1="160" x2="720" y2="240" opacity="0.21"></line><line x1="800" y1="160" x2="880" y2="240" opacity="0.94"></line><line x1="880" y1="160" x2="960" y2="240" opacity="0.99"></line><line x1="1040" y1="160" x2="960" y2="240" opacity="0.11"></line><line x1="1040" y1="160" x2="1120" y2="240" opacity="0.25"></line><line x1="1120" y1="160" x2="1200" y2="240" opacity="0.38"></line><line x1="1280" y1="160" x2="1200" y2="240" opacity="0.77"></line><line x1="1360" y1="160" x2="1280" y2="240" opacity="0.51"></line><line x1="1440" y1="160" x2="1360" y2="240" opacity="0.72"></line><line x1="80" y1="240" x2="0" y2="320" opacity="0.71"></line><line x1="160" y1="240" x2="80" y2="320" opacity="0.15"></line><line x1="160" y1="240" x2="240" y2="320" opacity="0.70"></line><line x1="320" y1="240" x2="240" y2="320" opacity="0.58"></line><line x1="320" y1="240" x2="400" y2="320" opacity="0.44"></line><line x1="400" y1="240" x2="480" y2="320" opacity="0.63"></line><line x1="480" y1="240" x2="560" y2="320" opacity="0.64"></line><line x1="640" y1="240" x2="560" y2="320" opacity="0.14"></line><line x1="720" y1="240" x2="640" y2="320" opacity="0.28"></line><line x1="720" y1="240" x2="800" y2="320" opacity="0.65"></line><line x1="880" y1="240" x2="800" y2="320" opacity="0.97"></line><line x1="960" y1="240" x2="880" y2="320" opacity="0.77"></line><line x1="960" y1="240" x2="1040" y2="320" opacity="0.07"></line><line x1="1040" y1="240" x2="1120" y2="320" opacity="0.52"></line><line x1="1120" y1="240" x2="1200" y2="320" opacity="0.43"></line><line x1="1280" y1="240" x2="1200" y2="320" opacity="0.45"></line><line x1="1360" y1="240" x2="1280" y2="320" opacity="0.46"></line><line x1="1360" y1="240" x2="1440" y2="320" opacity="0.67"></line><line x1="80" y1="320" x2="0" y2="400" opacity="0.26"></line><line x1="80" y1="320" x2="160" y2="400" opacity="0.43"></line><line x1="160" y1="320" x2="240" y2="400" opacity="0.10"></line><line x1="240" y1="320" x2="320" y2="400" opacity="0.24"></line><line x1="320" y1="320" x2="400" y2="400" opacity="0.90"></line><line x1="400" y1="320" x2="480" y2="400" opacity="0.52"></line><line x1="560" y1="320" x2="480" y2="400" opacity="0.16"></line><line x1="560" y1="320" x2="640" y2="400" opacity="0.79"></line><line x1="720" y1="320" x2="640" y2="400" opacity="0.43"></line><line x1="800" y1="320" x2="720" y2="400" opacity="0.70"></line><line x1="800" y1="320" x2="880" y2="400" opacity="0.71"></line><line x1="880" y1="320" x2="960" y2="400" opacity="0.67"></line><line x1="1040" y1="320" x2="960" y2="400" opacity="0.09"></line><line x1="1040" y1="320" x2="1120" y2="400" opacity="0.19"></line><line x1="1120" y1="320" x2="1200" y2="400" opacity="0.14"></line><line x1="1200" y1="320" x2="1280" y2="400" opacity="0.52"></line><line x1="1360" y1="320" x2="1280" y2="400" opacity="0.10"></line><line x1="1360" y1="320" x2="1440" y2="400" opacity="0.21"></line><line x1="0" y1="400" x2="80" y2="480" opacity="0.83"></line><line x1="80" y1="400" x2="160" y2="480" opacity="0.98"></line><line x1="160" y1="400" x2="240" y2="480" opacity="0.60"></line><line x1="240" y1="400" x2="320" y2="480" opacity="0.43"></line><line x1="400" y1="400" x2="320" y2="480" opacity="0.38"></line><line x1="400" y1="400" x2="480" y2="480" opacity="0.35"></line><line x1="560" y1="400" x2="480" y2="480" opacity="0.42"></line><line x1="560" y1="400" x2="640" y2="480" opacity="0.77"></line><line x1="720" y1="400" x2="640" y2="480" opacity="0.84"></line><line x1="720" y1="400" x2="800" y2="480" opacity="0.97"></line><line x1="880" y1="400" x2="800" y2="480" opacity="0.88"></line><line x1="960" y1="400" x2="880" y2="480" opacity="0.92"></line><line x1="960" y1="400" x2="1040" y2="480" opacity="0.85"></line><line x1="1040" y1="400" x2="1120" y2="480" opacity="0.35"></line><line x1="1120" y1="400" x2="1200" y2="480" opacity="0.73"></line><line x1="1200" y1="400" x2="1280" y2="480" opacity="0.21"></line><line x1="1280" y1="400" x2="1360" y2="480" opacity="0.54"></line><line x1="1360" y1="400" x2="1440" y2="480" opacity="0.70"></line><line x1="0" y1="480" x2="80" y2="560" opacity="0.86"></line><line x1="160" y1="480" x2="80" y2="560" opacity="0.98"></line><line x1="240" y1="480" x2="160" y2="560" opacity="0.19"></line><line x1="240" y1="480" x2="320" y2="560" opacity="0.28"></line><line x1="320" y1="480" x2="400" y2="560" opacity="0.72"></line><line x1="400" y1="480" x2="480" y2="560" opacity="0.87"></line><line x1="480" y1="480" x2="560" y2="560" opacity="0.94"></line><line x1="560" y1="480" x2="640" y2="560" opacity="0.25"></line><line x1="640" y1="480" x2="720" y2="560" opacity="0.48"></line><line x1="800" y1="480" x2="720" y2="560" opacity="0.07"></line><line x1="800" y1="480" x2="880" y2="560" opacity="0.19"></line><line x1="880" y1="480" x2="960" y2="560" opacity="0.15"></line><line x1="960" y1="480" x2="1040" y2="560" opacity="0.77"></line><line x1="1120" y1="480" x2="1040" y2="560" opacity="0.71"></line><line x1="1200" y1="480" x2="1120" y2="560" opacity="0.67"></line><line x1="1280" y1="480" x2="1200" y2="560" opacity="0.16"></line><line x1="1280" y1="480" x2="1360" y2="560" opacity="0.95"></line><line x1="1440" y1="480" x2="1360" y2="560" opacity="0.60"></line><line x1="0" y1="560" x2="80" y2="640" opacity="0.58"></line><line x1="80" y1="560" x2="160" y2="640" opacity="0.96"></line><line x1="160" y1="560" x2="240" y2="640" opacity="0.75"></line><line x1="240" y1="560" x2="320" y2="640" opacity="0.49"></line><line x1="320" y1="560" x2="400" y2="640" opacity="0.30"></line><line x1="400" y1="560" x2="480" y2="640" opacity="0.80"></line><line x1="480" y1="560" x2="560" y2="640" opacity="0.19"></line><line x1="640" y1="560" x2="560" y2="640" opacity="0.85"></line><line x1="720" y1="560" x2="640" y2="640" opacity="0.65"></line><line x1="800" y1="560" x2="720" y2="640" opacity="0.49"></line><line x1="800" y1="560" x2="880" y2="640" opacity="0.90"></line><line x1="880" y1="560" x2="960" y2="640" opacity="0.77"></line><line x1="1040" y1="560" x2="960" y2="640" opacity="0.61"></line><line x1="1120" y1="560" x2="1040" y2="640" opacity="0.98"></line><line x1="1200" y1="560" x2="1120" y2="640" opacity="0.74"></line><line x1="1280" y1="560" x2="1200" y2="640" opacity="0.24"></line><line x1="1360" y1="560" x2="1280" y2="640" opacity="0.55"></line><line x1="1440" y1="560" x2="1360" y2="640" opacity="0.85"></line><line x1="80" y1="640" x2="0" y2="720" opacity="0.27"></line><line x1="160" y1="640" x2="80" y2="720" opacity="0.98"></line><line x1="240" y1="640" x2="160" y2="720" opacity="0.99"></line><line x1="240" y1="640" x2="320" y2="720" opacity="0.31"></line><line x1="320" y1="640" x2="400" y2="720" opacity="0.62"></line><line x1="400" y1="640" x2="480" y2="720" opacity="0.76"></line><line x1="480" y1="640" x2="560" y2="720" opacity="0.17"></line><line x1="560" y1="640" x2="640" y2="720" opacity="0.28"></line><line x1="640" y1="640" x2="720" y2="720" opacity="0.68"></line><line x1="800" y1="640" x2="720" y2="720" opacity="0.76"></line><line x1="880" y1="640" x2="800" y2="720" opacity="0.80"></line><line x1="880" y1="640" x2="960" y2="720" opacity="0.95"></line><line x1="960" y1="640" x2="1040" y2="720" opacity="0.65"></line><line x1="1040" y1="640" x2="1120" y2="720" opacity="0.37"></line><line x1="1200" y1="640" x2="1120" y2="720" opacity="0.86"></line><line x1="1200" y1="640" x2="1280" y2="720" opacity="0.17"></line><line x1="1360" y1="640" x2="1280" y2="720" opacity="1.00"></line><line x1="1440" y1="640" x2="1360" y2="720" opacity="0.92"></line><line x1="80" y1="720" x2="0" y2="800" opacity="0.55"></line><line x1="80" y1="720" x2="160" y2="800" opacity="0.65"></line><line x1="160" y1="720" x2="240" y2="800" opacity="0.80"></line><line x1="240" y1="720" x2="320" y2="800" opacity="0.46"></line><line x1="320" y1="720" x2="400" y2="800" opacity="0.32"></line><line x1="400" y1="720" x2="480" y2="800" opacity="0.53"></line><line x1="560" y1="720" x2="480" y2="800" opacity="0.19"></line><line x1="640" y1="720" x2="560" y2="800" opacity="0.39"></line><line x1="720" y1="720" x2="640" y2="800" opacity="0.77"></line><line x1="720" y1="720" x2="800" y2="800" opacity="0.26"></line><line x1="880" y1="720" x2="800" y2="800" opacity="0.98"></line><line x1="880" y1="720" x2="960" y2="800" opacity="0.08"></line><line x1="1040" y1="720" x2="960" y2="800" opacity="0.40"></line><line x1="1120" y1="720" x2="1040" y2="800" opacity="0.39"></line><line x1="1120" y1="720" x2="1200" y2="800" opacity="0.60"></line><line x1="1200" y1="720" x2="1280" y2="800" opacity="0.97"></line><line x1="1280" y1="720" x2="1360" y2="800" opacity="0.43"></line><line x1="1360" y1="720" x2="1440" y2="800" opacity="0.46"></line><line x1="80" y1="800" x2="0" y2="880" opacity="0.80"></line><line x1="160" y1="800" x2="80" y2="880" opacity="0.69"></line><line x1="160" y1="800" x2="240" y2="880" opacity="0.41"></line><line x1="240" y1="800" x2="320" y2="880" opacity="0.44"></line><line x1="400" y1="800" x2="320" y2="880" opacity="0.75"></line><line x1="480" y1="800" x2="400" y2="880" opacity="0.89"></line><line x1="480" y1="800" x2="560" y2="880" opacity="0.13"></line><line x1="640" y1="800" x2="560" y2="880" opacity="0.72"></line><line x1="640" y1="800" x2="720" y2="880" opacity="0.96"></line><line x1="720" y1="800" x2="800" y2="880" opacity="0.54"></line><line x1="800" y1="800" x2="880" y2="880" opacity="0.53"></line><line x1="960" y1="800" x2="880" y2="880" opacity="0.16"></line><line x1="1040" y1="800" x2="960" y2="880" opacity="0.58"></line><line x1="1040" y1="800" x2="1120" y2="880" opacity="0.30"></line><line x1="1200" y1="800" x2="1120" y2="880" opacity="0.84"></line><line x1="1200" y1="800" x2="1280" y2="880" opacity="0.37"></line><line x1="1360" y1="800" x2="1280" y2="880" opacity="0.10"></line><line x1="1440" y1="800" x2="1360" y2="880" opacity="0.50"></line></g></svg>