<svg width="35" height="35" viewBox="0 0 35 35" fill="none" xmlns="http://www.w3.org/2000/svg">
<g filter="url(#filter0_d_51_1540)">
<circle cx="17.5" cy="15.5" r="13.5" fill="white"/>
<circle cx="17.5" cy="15.5" r="13.0781" stroke="#C7C7C7" stroke-width="0.84375"/>
</g>
<path d="M15.3906 13.3906C15.6236 13.3906 15.8125 13.5795 15.8125 13.8125V18.875C15.8125 19.108 15.6236 19.2969 15.3906 19.2969C15.1576 19.2969 14.9688 19.108 14.9688 18.875V13.8125C14.9688 13.5795 15.1576 13.3906 15.3906 13.3906Z" fill="black"/>
<path d="M17.5 13.3906C17.733 13.3906 17.9219 13.5795 17.9219 13.8125V18.875C17.9219 19.108 17.733 19.2969 17.5 19.2969C17.267 19.2969 17.0781 19.108 17.0781 18.875V13.8125C17.0781 13.5795 17.267 13.3906 17.5 13.3906Z" fill="black"/>
<path d="M20.0312 13.8125C20.0312 13.5795 19.8424 13.3906 19.6094 13.3906C19.3764 13.3906 19.1875 13.5795 19.1875 13.8125V18.875C19.1875 19.108 19.3764 19.2969 19.6094 19.2969C19.8424 19.2969 20.0312 19.108 20.0312 18.875V13.8125Z" fill="black"/>
<path fill-rule="evenodd" clip-rule="evenodd" d="M22.9844 11.2812C22.9844 11.7472 22.6066 12.125 22.1406 12.125H21.7188V19.7188C21.7188 20.6507 20.9632 21.4062 20.0312 21.4062H14.9688C14.0368 21.4062 13.2812 20.6507 13.2812 19.7188V12.125H12.8594C12.3934 12.125 12.0156 11.7472 12.0156 11.2812V10.4375C12.0156 9.97151 12.3934 9.59375 12.8594 9.59375H15.8125C15.8125 9.12776 16.1903 8.75 16.6562 8.75H18.3438C18.8097 8.75 19.1875 9.12776 19.1875 9.59375H22.1406C22.6066 9.59375 22.9844 9.97151 22.9844 10.4375V11.2812ZM14.2246 12.125L14.125 12.1748V19.7188C14.125 20.1847 14.5028 20.5625 14.9688 20.5625H20.0312C20.4972 20.5625 20.875 20.1847 20.875 19.7188V12.1748L20.7754 12.125H14.2246ZM12.8594 11.2812V10.4375H22.1406V11.2812H12.8594Z" fill="black"/>
<defs>
<filter id="filter0_d_51_1540" x="0.625" y="0.3125" width="33.75" height="33.75" filterUnits="userSpaceOnUse" color-interpolation-filters="sRGB">
<feFlood flood-opacity="0" result="BackgroundImageFix"/>
<feColorMatrix in="SourceAlpha" type="matrix" values="0 0 0 0 0 0 0 0 0 0 0 0 0 0 0 0 0 0 127 0" result="hardAlpha"/>
<feOffset dy="1.6875"/>
<feGaussianBlur stdDeviation="1.6875"/>
<feComposite in2="hardAlpha" operator="out"/>
<feColorMatrix type="matrix" values="0 0 0 0 0 0 0 0 0 0 0 0 0 0 0 0 0 0 0.19 0"/>
<feBlend mode="normal" in2="BackgroundImageFix" result="effect1_dropShadow_51_1540"/>
<feBlend mode="normal" in="SourceGraphic" in2="effect1_dropShadow_51_1540" result="shape"/>
</filter>
</defs>
</svg>
