<svg width="35" height="35" viewBox="0 0 35 35" fill="none" xmlns="http://www.w3.org/2000/svg">
<g filter="url(#filter0_d_51_1547)">
<circle cx="17.5" cy="15.5" r="13.5" fill="white"/>
<circle cx="17.5" cy="15.5" r="13.0781" stroke="#C7C7C7" stroke-width="0.84375"/>
</g>
<path d="M23.87 10.2774C24.0433 10.4507 24.0433 10.7317 23.87 10.905L22.9445 11.8305L21.1695 10.0555L22.095 9.12997C22.2683 8.95668 22.5493 8.95668 22.7226 9.12997L23.87 10.2774Z" fill="black"/>
<path d="M22.3169 12.4581L20.542 10.6831L14.4955 16.7295C14.4468 16.7783 14.4101 16.8376 14.3883 16.903L13.6742 19.0451C13.6164 19.2186 13.7814 19.3836 13.9549 19.3258L16.097 18.6117C16.1624 18.5899 16.2217 18.5532 16.2705 18.5045L22.3169 12.4581Z" fill="black"/>
<path fill-rule="evenodd" clip-rule="evenodd" d="M11 20.5374C11 21.2726 11.596 21.8686 12.3312 21.8686H22.0936C22.8289 21.8686 23.4249 21.2726 23.4249 20.5374V15.2124C23.4249 14.9674 23.2262 14.7687 22.9811 14.7687C22.7361 14.7687 22.5374 14.9674 22.5374 15.2124V20.5374C22.5374 20.7825 22.3387 20.9811 22.0936 20.9811H12.3312C12.0862 20.9811 11.8875 20.7825 11.8875 20.5374V10.775C11.8875 10.5299 12.0862 10.3312 12.3312 10.3312H18.0999C18.345 10.3312 18.5437 10.1326 18.5437 9.88749C18.5437 9.64242 18.345 9.44375 18.0999 9.44375H12.3312C11.596 9.44375 11 10.0398 11 10.775V20.5374Z" fill="black"/>
<defs>
<filter id="filter0_d_51_1547" x="0.625" y="0.3125" width="33.75" height="33.75" filterUnits="userSpaceOnUse" color-interpolation-filters="sRGB">
<feFlood flood-opacity="0" result="BackgroundImageFix"/>
<feColorMatrix in="SourceAlpha" type="matrix" values="0 0 0 0 0 0 0 0 0 0 0 0 0 0 0 0 0 0 127 0" result="hardAlpha"/>
<feOffset dy="1.6875"/>
<feGaussianBlur stdDeviation="1.6875"/>
<feComposite in2="hardAlpha" operator="out"/>
<feColorMatrix type="matrix" values="0 0 0 0 0 0 0 0 0 0 0 0 0 0 0 0 0 0 0.19 0"/>
<feBlend mode="normal" in2="BackgroundImageFix" result="effect1_dropShadow_51_1547"/>
<feBlend mode="normal" in="SourceGraphic" in2="effect1_dropShadow_51_1547" result="shape"/>
</filter>
</defs>
</svg>
